<svg xmlns="http://www.w3.org/2000/svg" version="1.0" width="473.000000pt" height="48.000000pt" viewBox="0 0 473.000000 48.000000" preserveAspectRatio="xMidYMid meet">

<g transform="translate(0.000000,48.000000) scale(0.100000,-0.100000)" fill="#64748b" stroke="none">
<path d="M2133 420 c-110 -67 -73 -222 54 -222 29 0 43 7 65 31 33 37 35 69 7 105 -32 41 -119 31 -119 -14 0 -29 20 -35 36 -11 20 27 30 27 50 -4 15 -23 15 -27 0 -50 -11 -17 -26 -25 -45 -25 -41 0 -66 33 -66 86 0 118 154 136 199 23 21 -51 20 -85 -3 -134 -21 -46 -54 -79 -94 -94 -19 -8 -354 -11 -1060 -11 -1136 0 -1077 -3 -1077 59 0 37 24 59 45 41 8 -7 15 -19 15 -26 0 -8 4 -14 9 -14 9 0 21 23 21 40 0 19 -34 40 -65 40 -67 0 -99 -87 -50 -135 l24 -25 1062 0 c785 0 1072 3 1101 12 22 6 58 28 82 49 l42 38 27 -28 c14 -16 43 -37 64 -47 36 -18 83 -19 1114 -22 1016 -2 1078 -1 1098 15 34 28 38 84 10 117 -43 50 -126 30 -117 -28 4 -23 28 -34 28 -13 0 8 7 21 16 28 14 11 18 10 30 -6 19 -26 17 -52 -6 -75 -20 -20 -33 -20 -1055 -20 -1126 0 -1072 -3 -1127 56 -49 52 -61 123 -34 189 29 68 120 92 170 46 21 -20 26 -34 26 -76 0 -38 -5 -56 -19 -69 -28 -25 -72 -17 -91 16 -14 26 -13 29 8 50 l23 23 19 -25 c17 -21 21 -23 30 -10 13 20 13 26 -6 44 -23 24 -77 20 -102 -7 -28 -29 -28 -67 -1 -101 32 -41 62 -49 109 -30 54 22 80 57 80 106 0 126 -166 174 -266 77 l-30 -29 -25 26 c-50 55 -146 71 -206 34z" fill="#64748b"/>
</g>
</svg>